name rise35.5848peak51.9257fall54.8793.mot
datacolumns 19
datarows 29
range 10.20663200000000 10.25330000000000
endheader
time	ground_force1_vx	ground_force1_vy	ground_force1_vz	ground_force1_px	ground_force1_py	ground_force1_pz	ground_force2_vx	ground_force2_vy	ground_force2_vz	ground_force2_px	ground_force2_py	ground_force2_pz	ground_torque1_x	ground_torque1_y	ground_torque1_z	ground_torque2_x	ground_torque2_y	ground_torque2_z	
10.20663200000000	-39.77648700000000	793.38781200000005	42.73371800000000	0.11297900000000	0.00000000000000	0.05879400000000	-7.62381900000000	20.54224700000000	-0.08206300000000	0.00000000000000	0.00000000000000	0.00000000000000	0.00000000000000	14.25357500000000	0.00000000000000	0.00000000000000	-1.03386400000000	0.00000000000000	
10.20828800000000	-40.87407800000000	792.88703799999996	42.73914800000000	0.11181800000000	0.00000000000000	0.05877400000000	-9.29046400000000	26.13313600000000	-0.05518900000000	0.30745100000000	0.00000000000000	-0.12544100000000	0.00000000000000	14.23089000000000	0.00000000000000	0.00000000000000	-2.42116100000000	0.00000000000000	
10.20995300000000	-41.98681800000000	792.28047400000003	42.72733900000000	0.11066900000000	0.00000000000000	0.05875200000000	-10.93967900000000	32.06391600000000	-0.01388900000000	0.31289600000000	0.00000000000000	-0.12532000000000	0.00000000000000	14.20783100000000	0.00000000000000	0.00000000000000	-2.80990000000000	0.00000000000000	
10.21163200000000	-43.11421300000000	791.56371000000001	42.69760100000000	0.10953200000000	0.00000000000000	0.05872800000000	-12.51440900000000	38.21253500000000	0.04295100000000	0.31784600000000	0.00000000000000	-0.12519700000000	0.00000000000000	14.18439400000000	0.00000000000000	0.00000000000000	-3.16639100000000	0.00000000000000	
10.21330400000000	-44.25568400000000	790.73226000000000	42.64927600000000	0.10840800000000	0.00000000000000	0.05870200000000	-13.96269400000000	44.46045700000000	0.11582800000000	0.32237300000000	0.00000000000000	-0.12507400000000	0.00000000000000	14.16057400000000	0.00000000000000	0.00000000000000	-3.47679800000000	0.00000000000000	
10.21495500000000	-45.41056100000000	789.78156899999999	42.58173800000000	0.10729800000000	0.00000000000000	0.05867300000000	-15.24112400000000	50.70154600000000	0.20458400000000	0.32653300000000	0.00000000000000	-0.12495100000000	0.00000000000000	14.13635700000000	0.00000000000000	0.00000000000000	-3.73003300000000	0.00000000000000	
10.21663000000000	-46.57808600000000	788.70702400000005	42.49440200000000	0.10620200000000	0.00000000000000	0.05864200000000	-16.31721900000000	56.84887200000000	0.30841000000000	0.33037200000000	0.00000000000000	-0.12483000000000	0.00000000000000	14.11172200000000	0.00000000000000	0.00000000000000	-3.91835000000000	0.00000000000000	
10.21829900000000	-47.75740500000000	787.50396300000000	42.38671800000000	0.10512000000000	0.00000000000000	0.05860800000000	-17.17057600000000	62.83898500000000	0.42591000000000	0.33392800000000	0.00000000000000	-0.12471200000000	0.00000000000000	14.08664100000000	0.00000000000000	0.00000000000000	-4.03759900000000	0.00000000000000	
10.21995400000000	-48.94757200000000	786.16768200000001	42.25818000000000	0.10405200000000	0.00000000000000	0.05857200000000	-17.79287000000000	68.63359000000000	0.55518800000000	0.33723400000000	0.00000000000000	-0.12459600000000	0.00000000000000	14.06108200000000	0.00000000000000	0.00000000000000	-4.08713800000000	0.00000000000000	
10.22163700000000	-50.14754400000000	784.69345199999998	42.10832600000000	0.10299800000000	0.00000000000000	0.05853400000000	-18.18686100000000	74.21889200000000	0.69397300000000	0.34031400000000	0.00000000000000	-0.12448300000000	0.00000000000000	14.03500000000000	0.00000000000000	0.00000000000000	-4.06948200000000	0.00000000000000	
10.22329400000000	-51.35618000000000	783.07652800000005	41.93674100000000	0.10195900000000	0.00000000000000	0.05849200000000	-18.36465800000000	79.60303200000000	0.83974100000000	0.34319300000000	0.00000000000000	-0.12437500000000	0.00000000000000	14.00834600000000	0.00000000000000	0.00000000000000	-3.98975300000000	0.00000000000000	
10.22495300000000	-52.57224600000000	781.31215799999995	41.74305900000000	0.10093500000000	0.00000000000000	0.05844900000000	-18.34551500000000	84.81216400000000	0.98984400000000	0.34588700000000	0.00000000000000	-0.12427000000000	0.00000000000000	13.98106200000000	0.00000000000000	0.00000000000000	-3.85500200000000	0.00000000000000	
10.22662900000000	-53.79440600000000	779.39560300000005	41.52696300000000	0.09992500000000	0.00000000000000	0.05840200000000	-18.15341400000000	89.88574100000000	1.14163000000000	0.34841500000000	0.00000000000000	-0.12416900000000	0.00000000000000	13.95308000000000	0.00000000000000	0.00000000000000	-3.67350100000000	0.00000000000000	
10.22828800000000	-55.02122900000000	777.32214099999999	41.28818900000000	0.09893000000000	0.00000000000000	0.05835300000000	-17.81468400000000	94.87152700000000	1.29252900000000	0.35078800000000	0.00000000000000	-0.12407300000000	0.00000000000000	13.92432500000000	0.00000000000000	0.00000000000000	-3.45404800000000	0.00000000000000	
10.22995300000000	-56.25118800000000	775.08708999999999	41.02652700000000	0.09795000000000	0.00000000000000	0.05830200000000	-17.35583200000000	99.82079500000000	1.44013900000000	0.35301900000000	0.00000000000000	-0.12398200000000	0.00000000000000	13.89471400000000	0.00000000000000	0.00000000000000	-3.20535200000000	0.00000000000000	
10.23163400000000	-57.48265700000000	772.68581400000005	40.74182300000000	0.09698400000000	0.00000000000000	0.05824700000000	-16.80172500000000	104.78406099999999	1.58226300000000	0.35511800000000	0.00000000000000	-0.12389600000000	0.00000000000000	13.86415500000000	0.00000000000000	0.00000000000000	-2.93553300000000	0.00000000000000	
10.23330400000000	-58.71391800000000	770.11374200000000	40.43397900000000	0.09603300000000	0.00000000000000	0.05819100000000	-16.17421400000000	109.80759600000000	1.71694300000000	0.35709300000000	0.00000000000000	-0.12381400000000	0.00000000000000	13.83254800000000	0.00000000000000	0.00000000000000	-2.65174100000000	0.00000000000000	
10.23495800000000	-59.94316000000000	767.36638100000005	40.10295400000000	0.09509500000000	0.00000000000000	0.05813100000000	-15.49121600000000	114.93085000000001	1.84246000000000	0.35895300000000	0.00000000000000	-0.12373800000000	0.00000000000000	13.79978400000000	0.00000000000000	0.00000000000000	-2.35992700000000	0.00000000000000	
10.23663400000000	-61.16848200000000	764.43933300000003	39.74876600000000	0.09417100000000	0.00000000000000	0.05806900000000	-14.76625300000000	120.18482200000000	1.95731600000000	0.36070300000000	0.00000000000000	-0.12366700000000	0.00000000000000	13.76574600000000	0.00000000000000	0.00000000000000	-2.06473600000000	0.00000000000000	
10.23830300000000	-62.38789300000000	761.32830899999999	39.37149000000000	0.09326100000000	0.00000000000000	0.05800500000000	-14.00839700000000	125.59133500000000	2.06021500000000	0.36234900000000	0.00000000000000	-0.12360100000000	0.00000000000000	13.73031300000000	0.00000000000000	0.00000000000000	-1.76951300000000	0.00000000000000	
10.23996100000000	-63.59932100000000	758.02914599999997	38.97126300000000	0.09236300000000	0.00000000000000	0.05793800000000	-13.22255900000000	131.16309899999999	2.15001800000000	0.36389600000000	0.00000000000000	-0.12354100000000	0.00000000000000	13.69335300000000	0.00000000000000	0.00000000000000	-1.47640900000000	0.00000000000000	
10.24163300000000	-64.80061000000001	754.53782400000000	38.54828100000000	0.09147800000000	0.00000000000000	0.05786900000000	-12.41002100000000	136.90441799999999	2.22571000000000	0.36534900000000	0.00000000000000	-0.12348500000000	0.00000000000000	13.65472800000000	0.00000000000000	0.00000000000000	-1.18655200000000	0.00000000000000	
10.24329900000000	-65.98952900000000	750.85048200000006	38.10279600000000	0.09060500000000	0.00000000000000	0.05779700000000	-11.56915000000000	142.81237200000001	2.28635400000000	0.36671000000000	0.00000000000000	-0.12343600000000	0.00000000000000	13.61429700000000	0.00000000000000	0.00000000000000	-0.90025900000000	0.00000000000000	
10.24495300000000	-67.16377300000001	746.96343999999999	37.63512400000000	0.08974300000000	0.00000000000000	0.05772400000000	-10.69618600000000	148.87828900000000	2.33106000000000	0.36798400000000	0.00000000000000	-0.12339100000000	0.00000000000000	13.57191000000000	0.00000000000000	0.00000000000000	-0.61726800000000	0.00000000000000	
10.24661900000000	-68.32097300000000	742.87321099999997	37.14563600000000	0.08889200000000	0.00000000000000	0.05764800000000	-9.78604600000000	155.08935399999999	2.35895100000000	0.36917300000000	0.00000000000000	-0.12335200000000	0.00000000000000	13.52741400000000	0.00000000000000	0.00000000000000	-0.33697000000000	0.00000000000000	
10.24829400000000	-69.45869500000001	738.57652499999995	36.63476300000000	0.08805100000000	0.00000000000000	0.05757000000000	-8.83307400000000	161.43020500000000	2.36913600000000	0.37028000000000	0.00000000000000	-0.12331800000000	0.00000000000000	13.48065200000000	0.00000000000000	0.00000000000000	-0.05861600000000	0.00000000000000	
10.24995400000000	-70.57445000000000	734.07034699999997	36.10299200000000	0.08721900000000	0.00000000000000	0.05749000000000	-7.83169100000000	167.88440000000000	2.36070200000000	0.37130700000000	0.00000000000000	-0.12328900000000	0.00000000000000	13.43146400000000	0.00000000000000	0.00000000000000	0.21850100000000	0.00000000000000	
10.25163600000000	-71.66569900000000	729.35189400000002	35.55086500000000	0.08639600000000	0.00000000000000	0.05740800000000	-6.77692700000000	174.43567500000000	2.33269700000000	0.37225600000000	0.00000000000000	-0.12326600000000	0.00000000000000	13.37968600000000	0.00000000000000	0.00000000000000	0.49490700000000	0.00000000000000	
10.25330000000000	-72.72986000000000	724.41865900000005	34.97898200000000	0.08558100000000	0.00000000000000	0.05732400000000	-5.66479900000000	181.06894199999999	2.28413600000000	0.37312800000000	0.00000000000000	-0.12324800000000	0.00000000000000	13.32515300000000	0.00000000000000	0.00000000000000	0.77085000000000	0.00000000000000	
